<svg version="1.0" xmlns="http://www.w3.org/2000/svg"
 width="1140.000000pt" height="854.000000pt" viewBox="0 0 1140.000000 854.000000"
 preserveAspectRatio="xMidYMid meet">
<g transform="translate(0.000000,854.000000) scale(0.100000,-0.100000)"
fill="#000000" stroke="none">
<path d="M3120 6460 c0 -6 -80 -10 -220 -10 -140 0 -220 -4 -220 -10 0 -6 -27
-10 -60 -10 -33 0 -60 -4 -60 -10 0 -5 -18 -10 -40 -10 -22 0 -40 -4 -40 -10
0 -5 -18 -10 -40 -10 -22 0 -40 -4 -40 -10 0 -5 -13 -10 -30 -10 -16 0 -30 -4
-30 -10 0 -5 -18 -10 -40 -10 -22 0 -40 -4 -40 -10 0 -5 -9 -10 -20 -10 -11 0
-20 -4 -20 -10 0 -5 -13 -10 -28 -10 -16 0 -37 -9 -47 -20 -10 -11 -29 -20
-42 -20 -12 0 -23 -4 -23 -10 0 -5 -9 -10 -20 -10 -11 0 -20 -4 -20 -10 0 -5
-9 -10 -20 -10 -11 0 -20 -4 -20 -10 0 -5 -9 -10 -20 -10 -11 0 -20 -4 -20
-10 0 -5 -9 -10 -20 -10 -11 0 -20 -4 -20 -10 0 -5 -9 -10 -20 -10 -11 0 -20
-4 -20 -8 0 -5 -12 -15 -27 -23 -16 -8 -37 -22 -47 -31 -11 -10 -25 -18 -30
-18 -6 -1 -29 -19 -51 -40 -22 -22 -44 -40 -48 -40 -5 0 -31 -21 -58 -46 -27
-26 -59 -52 -71 -58 -13 -6 -27 -21 -32 -32 -5 -11 -19 -25 -30 -30 -11 -5
-26 -19 -32 -32 -6 -13 -55 -68 -108 -121 -53 -54 -96 -102 -96 -107 0 -5 -14
-23 -30 -41 -17 -18 -30 -39 -30 -47 0 -9 -4 -16 -10 -16 -5 0 -10 -6 -10 -13
0 -7 -8 -22 -17 -33 -10 -10 -24 -31 -32 -46 -8 -16 -18 -28 -23 -28 -4 0 -8
-9 -8 -20 0 -11 -4 -20 -10 -20 -5 0 -10 -6 -10 -13 0 -8 -9 -22 -20 -32 -11
-10 -20 -31 -20 -47 0 -15 -4 -28 -10 -28 -5 0 -10 -9 -10 -20 0 -11 -4 -20
-10 -20 -5 0 -10 -9 -10 -20 0 -11 -4 -20 -10 -20 -5 0 -10 -9 -10 -20 0 -11
-4 -20 -10 -20 -5 0 -10 -13 -10 -30 0 -16 -4 -30 -10 -30 -5 0 -10 -13 -10
-30 0 -16 -4 -30 -10 -30 -5 0 -10 -13 -10 -30 0 -16 -4 -30 -10 -30 -5 0 -10
-18 -10 -40 0 -22 -4 -40 -10 -40 -5 0 -10 -22 -10 -50 0 -27 -4 -50 -10 -50
-5 0 -10 -22 -10 -50 0 -27 -4 -50 -10 -50 -6 0 -10 -37 -10 -90 0 -53 -4 -90
-10 -90 -6 0 -10 -63 -10 -170 0 -107 4 -170 10 -170 6 0 10 -40 10 -100 0
-60 4 -100 10 -100 6 0 10 -18 10 -40 0 -22 5 -40 10 -40 6 0 10 -18 10 -40 0
-22 5 -40 10 -40 6 0 10 -18 10 -40 0 -22 5 -40 10 -40 6 0 10 -18 10 -40 0
-22 5 -40 10 -40 6 0 10 -9 10 -20 0 -11 5 -20 10 -20 6 0 10 -13 10 -30 0
-16 5 -30 10 -30 6 0 10 -13 10 -30 0 -16 5 -30 10 -30 6 0 10 -9 10 -20 0
-11 5 -20 10 -20 6 0 10 -9 10 -20 0 -11 5 -20 10 -20 6 0 10 -9 10 -20 0 -11
5 -20 10 -20 6 0 10 -9 10 -20 0 -11 5 -20 10 -20 6 0 10 -9 10 -20 0 -11 5
-20 10 -20 6 0 10 -7 10 -15 0 -9 9 -25 20 -37 11 -12 20 -28 20 -35 0 -7 5
-13 10 -13 6 0 10 -9 10 -20 0 -11 4 -20 8 -20 5 0 15 -12 23 -27 8 -16 26
-41 41 -58 16 -16 28 -34 28 -38 0 -5 26 -36 58 -69 31 -32 59 -65 61 -71 5
-17 154 -167 166 -167 6 0 37 -27 70 -60 33 -32 65 -59 70 -60 6 0 24 -12 40
-28 17 -15 42 -33 58 -41 15 -8 27 -18 27 -23 0 -4 6 -8 13 -8 7 0 23 -9 35
-20 12 -11 28 -20 37 -20 8 0 15 -4 15 -10 0 -5 6 -10 13 -10 7 0 23 -9 35
-20 12 -11 28 -20 37 -20 8 0 15 -4 15 -10 0 -5 9 -10 20 -10 11 0 20 -4 20
-10 0 -5 14 -10 30 -10 17 0 30 -4 30 -10 0 -5 9 -10 20 -10 11 0 20 -4 20
-10 0 -5 9 -10 20 -10 11 0 20 -4 20 -10 0 -5 14 -10 30 -10 17 0 30 -4 30
-10 0 -5 9 -10 20 -10 11 0 20 -4 20 -10 0 -5 14 -10 30 -10 17 0 30 -4 30
-10 0 -5 9 -10 20 -10 11 0 20 -4 20 -10 0 -6 27 -10 60 -10 33 0 60 -4 60
-10 0 -5 18 -10 40 -10 22 0 40 -4 40 -10 0 -6 27 -10 60 -10 33 0 60 -4 60
-10 0 -6 103 -10 290 -10 187 0 290 4 290 10 0 6 30 10 70 10 40 0 70 4 70 10
0 6 23 10 50 10 28 0 50 5 50 10 0 6 14 10 30 10 17 0 30 5 30 10 0 6 14 10
30 10 17 0 30 5 30 10 0 6 18 10 40 10 22 0 40 5 40 10 0 6 9 10 20 10 11 0
20 5 20 10 0 6 14 10 30 10 17 0 30 5 30 10 0 6 14 10 30 10 17 0 30 5 30 10
0 6 9 10 20 10 11 0 20 5 20 10 0 6 9 10 20 10 11 0 20 5 20 10 0 6 9 10 20
10 11 0 20 5 20 10 0 6 9 10 20 10 11 0 20 4 20 8 0 5 12 15 28 23 15 8 36 22
46 31 11 10 26 18 33 18 7 0 13 5 13 10 0 6 7 10 16 10 8 0 29 13 47 30 18 16
38 30 45 30 6 0 12 4 12 8 0 5 12 15 28 22 31 16 382 360 382 375 0 6 14 24
30 42 17 18 30 36 30 40 0 4 12 22 28 38 15 17 33 42 41 58 8 15 18 27 23 27
4 0 8 9 8 20 0 11 5 20 10 20 6 0 10 6 10 13 0 7 9 23 20 35 11 12 20 28 20
37 0 8 5 15 10 15 6 0 10 9 10 20 0 11 5 20 10 20 6 0 10 9 10 20 0 11 5 20
10 20 6 0 10 9 10 20 0 11 5 20 10 20 6 0 10 9 10 20 0 11 5 20 10 20 6 0 10
14 10 30 0 17 5 30 10 30 6 0 10 9 10 20 0 11 5 20 10 20 6 0 10 14 10 30 0
17 5 30 10 30 6 0 10 14 10 30 0 17 5 30 10 30 6 0 10 9 10 20 0 11 5 20 10
20 6 0 10 18 10 40 0 22 5 40 10 40 6 0 10 23 10 50 0 28 5 50 10 50 6 0 10
30 10 70 0 40 4 70 10 70 6 0 10 103 10 290 0 187 -4 290 -10 290 -6 0 -10 30
-10 70 0 40 -4 70 -10 70 -5 0 -10 23 -10 50 0 28 -4 50 -10 50 -5 0 -10 14
-10 30 0 17 -4 30 -10 30 -5 0 -10 14 -10 30 0 17 -4 30 -10 30 -5 0 -10 18
-10 40 0 22 -4 40 -10 40 -5 0 -10 14 -10 30 0 17 -4 30 -10 30 -5 0 -10 9
-10 20 0 11 -4 20 -10 20 -5 0 -10 9 -10 20 0 11 -4 20 -10 20 -5 0 -10 14
-10 30 0 17 -4 30 -10 30 -5 0 -10 9 -10 20 0 11 -4 20 -10 20 -5 0 -10 7 -10
15 0 9 -9 25 -20 37 -11 12 -20 28 -20 35 0 7 -4 13 -10 13 -5 0 -10 9 -10 20
0 11 -4 20 -10 20 -5 0 -10 9 -10 20 0 11 -4 20 -8 20 -5 0 -15 12 -23 28 -8
15 -26 41 -41 57 -16 17 -28 36 -28 43 0 6 -4 12 -8 12 -5 0 -15 12 -23 28 -7
15 -47 62 -88 104 -40 42 -79 87 -85 100 -6 12 -22 28 -34 34 -13 6 -58 46
-101 88 -43 42 -82 76 -87 76 -5 0 -27 18 -49 40 -22 21 -45 39 -51 40 -5 0
-19 8 -30 18 -10 9 -31 23 -46 31 -16 8 -28 18 -28 23 0 4 -9 8 -20 8 -11 0
-20 5 -20 10 0 6 -9 10 -20 10 -11 0 -20 5 -20 10 0 6 -9 10 -20 10 -11 0 -20
5 -20 10 0 6 -9 10 -20 10 -11 0 -20 5 -20 10 0 6 -9 10 -20 10 -11 0 -20 5
-20 10 0 6 -9 10 -20 10 -11 0 -20 5 -20 10 0 6 -9 10 -20 10 -11 0 -20 5 -20
10 0 6 -9 10 -20 10 -11 0 -20 5 -20 10 0 6 -13 10 -30 10 -16 0 -30 5 -30 10
0 6 -9 10 -20 10 -11 0 -20 5 -20 10 0 6 -13 10 -30 10 -16 0 -30 5 -30 10 0
6 -13 10 -30 10 -16 0 -30 5 -30 10 0 6 -18 10 -40 10 -22 0 -40 5 -40 10 0 6
-22 10 -50 10 -27 0 -50 5 -50 10 0 6 -27 10 -60 10 -33 0 -60 4 -60 10 0 6
-33 10 -80 10 -47 0 -80 4 -80 10 0 6 -4 10 -10 10 -5 0 -10 -4 -10 -10z
m-230 -1185 c0 -8 -4 -15 -10 -15 -5 0 -10 -9 -10 -20 0 -11 -4 -20 -10 -20
-5 0 -10 -9 -10 -20 0 -11 -4 -20 -10 -20 -5 0 -10 -13 -10 -30 0 -16 -4 -30
-10 -30 -5 0 -10 -13 -10 -30 0 -16 -4 -30 -10 -30 -5 0 -10 -13 -10 -30 0
-16 -4 -30 -10 -30 -5 0 -10 -9 -10 -20 0 -11 -4 -20 -10 -20 -5 0 -10 -13
-10 -30 0 -16 -4 -30 -10 -30 -5 0 -10 -9 -10 -20 0 -11 -4 -20 -10 -20 -5 0
-10 -11 -10 -23 0 -13 -9 -32 -20 -42 -13 -12 -20 -31 -20 -57 0 -21 -4 -38
-10 -38 -5 0 -10 -9 -10 -20 0 -11 -4 -20 -10 -20 -5 0 -10 -13 -10 -30 0 -16
-4 -30 -10 -30 -5 0 -10 -9 -10 -20 0 -11 -4 -20 -10 -20 -5 0 -10 -11 -10
-23 0 -13 -9 -32 -20 -42 -13 -12 -20 -31 -20 -57 0 -21 -4 -38 -10 -38 -5 0
-10 -9 -10 -20 0 -11 -4 -20 -10 -20 -5 0 -10 -13 -10 -30 0 -16 -4 -30 -10
-30 -5 0 -10 -9 -10 -20 0 -11 -4 -20 -10 -20 -5 0 -10 -13 -10 -30 0 -16 -4
-30 -10 -30 -5 0 -10 -9 -10 -20 0 -11 -4 -20 -10 -20 -5 0 -10 -9 -10 -20 0
-11 -4 -20 -10 -20 -5 0 -10 -13 -10 -30 0 -16 -4 -30 -10 -30 -5 0 -10 -13
-10 -30 0 -16 -4 -30 -10 -30 -19 0 -10 -38 16 -64 24 -23 35 -26 95 -26 39 0
69 4 69 10 0 6 8 10 18 10 15 -1 15 -2 -3 -18 -11 -9 -26 -29 -34 -44 -8 -16
-18 -28 -23 -28 -4 0 -8 -6 -8 -12 0 -7 -17 -31 -38 -53 -20 -22 -43 -52 -51
-67 -8 -16 -18 -28 -23 -28 -4 0 -8 -6 -8 -13 0 -7 -8 -22 -17 -33 -10 -10
-24 -31 -32 -46 -8 -16 -18 -28 -23 -28 -4 0 -8 -6 -8 -12 0 -7 -18 -31 -40
-53 -21 -22 -39 -48 -40 -57 0 -10 -4 -18 -10 -18 -5 0 -10 -6 -10 -13 0 -7
-16 -29 -36 -48 -19 -18 -45 -49 -56 -67 -11 -18 -23 -30 -26 -27 -3 3 0 11 6
17 7 7 12 22 12 35 0 13 5 23 10 23 6 0 10 18 10 40 0 22 5 40 10 40 6 0 10
18 10 40 0 22 5 40 10 40 6 0 10 14 10 30 0 17 5 30 10 30 6 0 10 14 10 30 0
17 5 30 10 30 6 0 10 18 10 40 0 22 5 40 10 40 6 0 10 26 10 59 0 50 -4 62
-26 85 -26 26 -84 37 -84 16 0 -5 -9 -10 -20 -10 -11 0 -20 5 -20 10 0 6 -12
10 -27 11 -16 0 -22 3 -15 6 7 3 12 24 12 54 0 27 5 49 10 49 6 0 10 27 10 60
0 33 4 60 10 60 6 0 10 18 10 40 0 22 5 40 10 40 6 0 10 18 10 40 0 22 5 40
10 40 6 0 10 27 10 60 0 33 4 60 10 60 6 0 10 23 10 50 0 28 5 50 10 50 6 0
10 23 10 50 0 28 5 50 10 50 6 0 10 23 10 50 0 28 5 50 10 50 6 0 10 27 10 60
0 33 4 60 10 60 6 0 10 18 10 40 0 22 5 40 10 40 6 0 10 27 10 60 0 33 4 60
10 60 6 0 10 14 10 30 0 17 5 30 10 30 6 0 10 23 10 50 0 28 5 50 10 50 6 0
10 23 10 50 0 28 5 50 10 50 6 0 10 7 10 15 0 13 38 15 280 15 242 0 280 -2
280 -15z m254 3 c5 -10 7 -10 12 0 7 15 364 18 364 2 0 -5 9 -10 20 -10 11 0
20 -4 20 -10 0 -5 10 -10 23 -10 13 0 33 -9 45 -20 12 -11 25 -20 29 -20 13 0
93 -84 93 -98 0 -7 5 -12 10 -12 6 0 10 -9 10 -20 0 -11 5 -20 10 -20 6 0 10
-9 10 -20 0 -11 5 -20 10 -20 6 0 10 -13 10 -30 0 -16 5 -30 10 -30 6 0 10
-57 10 -150 0 -93 -4 -150 -10 -150 -5 0 -10 -13 -10 -30 0 -16 -4 -30 -10
-30 -5 0 -10 -10 -10 -22 0 -13 -12 -36 -28 -53 -15 -16 -33 -42 -41 -57 -8
-16 -18 -28 -23 -28 -4 0 -8 -7 -8 -15 0 -8 -5 -15 -12 -15 -19 0 -48 -31 -48
-52 0 -10 -4 -18 -10 -18 -16 0 -11 -52 7 -72 9 -10 24 -18 35 -18 10 0 18 -4
18 -10 0 -5 9 -10 20 -10 11 0 20 -4 20 -10 0 -5 5 -10 12 -10 14 0 118 -100
118 -113 0 -4 9 -17 20 -29 11 -12 20 -32 20 -45 0 -13 5 -23 10 -23 6 0 10
-53 10 -140 0 -87 -4 -140 -10 -140 -5 0 -10 -13 -10 -30 0 -16 -4 -30 -10
-30 -5 0 -10 -13 -10 -30 0 -16 -4 -30 -10 -30 -5 0 -10 -6 -10 -13 0 -7 -9
-23 -20 -35 -11 -12 -20 -25 -20 -31 0 -13 -178 -185 -195 -189 -8 -2 -15 -8
-15 -13 0 -5 -9 -9 -20 -9 -11 0 -20 -4 -20 -10 0 -5 -9 -10 -20 -10 -11 0
-20 -4 -20 -10 0 -5 -18 -10 -40 -10 -22 0 -40 -4 -40 -10 0 -6 -27 -10 -60
-10 -33 0 -60 -4 -60 -10 0 -7 -153 -10 -440 -10 -287 0 -440 3 -440 10 0 6
-18 10 -40 10 -22 0 -40 -4 -40 -10 0 -5 -7 -10 -16 -10 -13 0 -12 4 4 28 11
15 30 37 41 49 12 12 21 29 21 38 0 8 5 15 10 15 6 0 10 6 10 13 0 6 18 30 40
52 21 22 39 45 40 50 0 6 17 28 38 50 20 23 42 50 48 60 11 19 25 20 328 23
199 1 316 6 316 12 0 6 7 10 17 10 22 0 153 130 153 153 0 9 5 17 10 17 6 0
10 14 10 30 0 17 5 30 10 30 6 0 10 18 10 40 0 22 -4 40 -10 40 -5 0 -10 13
-10 28 0 20 -15 42 -58 85 -49 49 -63 57 -95 57 -20 0 -37 5 -37 10 0 6 -77
10 -210 10 -133 0 -210 -4 -210 -10 0 -5 -13 -10 -30 -10 -16 0 -30 5 -30 10
0 6 -18 10 -40 10 -22 0 -40 -4 -40 -10 0 -5 -8 -10 -17 -10 -13 0 -14 3 -5
12 7 7 12 22 12 35 0 13 5 23 10 23 6 0 10 9 10 20 0 11 5 20 10 20 6 0 10 14
10 30 0 17 5 30 10 30 6 0 10 14 10 30 0 17 5 30 10 30 6 0 10 9 10 20 0 11 5
20 10 20 6 0 10 11 10 25 l0 25 205 0 c130 0 205 4 205 10 0 6 7 10 16 10 23
0 134 110 134 133 0 9 5 17 10 17 6 0 10 37 10 90 0 53 -4 90 -10 90 -5 0 -10
7 -10 16 0 9 -17 34 -39 55 -21 22 -46 39 -55 39 -9 0 -16 5 -16 10 0 6 -22
10 -50 10 -27 0 -50 5 -50 10 0 6 -27 10 -60 10 -33 0 -60 -4 -60 -10 0 -5 -8
-10 -17 -10 -13 0 -14 3 -5 12 7 7 12 27 12 45 0 18 5 33 10 33 6 0 10 9 10
20 0 11 5 20 10 20 6 0 10 14 10 30 0 17 5 30 10 30 6 0 10 9 10 20 0 11 5 20
10 20 6 0 10 14 10 30 0 17 5 30 10 30 6 0 10 9 10 20 0 11 5 20 10 20 6 0 10
8 10 18 0 31 23 44 34 20z"/>
<path d="M7320 5580 c0 -5 -8 -10 -18 -10 -23 0 -52 -30 -52 -53 0 -9 -4 -17
-10 -17 -5 0 -10 -18 -10 -40 0 -22 5 -40 10 -40 6 0 10 -18 10 -40 0 -22 -4
-40 -10 -40 -7 0 -10 -390 -10 -1150 0 -760 3 -1150 10 -1150 6 0 10 -9 10
-20 0 -11 5 -20 10 -20 6 0 10 -5 10 -11 0 -7 8 -18 18 -25 20 -16 72 -18 72
-4 0 6 60 10 160 10 100 0 160 -4 160 -10 0 -5 8 -10 18 -10 21 1 52 23 52 39
0 6 5 11 10 11 6 0 10 9 10 20 0 11 5 20 10 20 6 0 10 14 10 30 0 17 -4 30
-10 30 -7 0 -10 190 -10 550 0 360 3 550 10 550 14 0 12 37 -2 43 -7 3 -1 6
15 6 15 1 27 6 27 11 0 6 14 10 30 10 17 0 30 -4 30 -10 0 -5 14 -10 30 -10
17 0 30 5 30 10 0 6 14 10 30 10 17 0 30 -4 30 -10 0 -5 22 -10 49 -10 39 0
53 5 75 26 l26 27 0 207 0 207 -26 27 c-27 26 -27 26 -190 26 l-164 0 0 325
c0 210 4 325 10 325 6 0 10 14 10 30 0 17 -4 30 -10 30 -5 0 -10 13 -10 28 0
57 -18 62 -213 62 -111 0 -177 4 -177 10 0 6 -13 10 -30 10 -16 0 -30 -4 -30
-10z"/>
<path d="M8536 5384 l-26 -27 0 -177 0 -177 26 -27 27 -26 827 0 827 0 27 26
26 27 0 187 c0 168 -2 189 -18 203 -17 16 -91 17 -854 17 l-835 0 -27 -26z"/>
<path d="M5707 5352 c-10 -10 -17 -26 -17 -35 0 -9 -4 -17 -10 -17 -7 0 -10
-263 -10 -769 l0 -768 26 -27 27 -26 637 0 637 0 27 26 26 27 0 628 c0 492 -3
629 -12 633 -10 5 -10 7 0 12 8 4 12 37 12 114 0 77 4 110 12 112 8 3 -7 25
-36 56 l-49 52 -219 0 c-139 0 -218 -4 -218 -10 0 -6 -83 -10 -230 -10 -147 0
-230 4 -230 10 0 6 -66 10 -178 10 -161 0 -181 -2 -195 -18z m883 -832 l0
-350 -220 0 -220 0 0 25 c0 14 -4 25 -10 25 -6 0 -10 93 -10 260 0 167 4 260
10 260 6 0 10 9 10 20 0 11 -4 20 -10 20 -5 0 -10 14 -10 30 0 17 5 30 10 30
6 0 10 7 10 15 0 13 31 15 220 15 l220 0 0 -350z"/>
<path d="M8527 4812 c-35 -36 -52 -92 -27 -92 7 0 10 -153 10 -438 l0 -439 42
-38 c25 -24 43 -34 46 -27 2 7 12 12 23 12 10 0 19 5 19 10 0 6 9 10 20 10 11
0 20 -4 20 -10 0 -7 266 -10 778 -10 l778 0 37 38 c29 30 37 46 37 75 0 20 -4
37 -10 37 -6 0 -10 33 -10 80 0 47 4 80 10 80 6 0 10 18 10 40 0 22 -4 40 -10
40 -5 0 -10 8 -10 18 0 11 -8 26 -18 35 -17 15 -77 17 -650 17 l-632 0 0 70 0
70 554 0 c434 0 556 3 560 13 5 10 7 10 12 0 7 -15 84 -18 84 -3 0 6 8 10 18
10 11 0 26 8 35 18 15 16 17 45 17 194 0 157 -2 177 -18 191 -10 10 -26 17
-35 17 -9 0 -17 5 -17 10 0 7 -279 10 -818 10 l-818 0 -37 -38z"/>
<path d="M8256 3584 c-25 -26 -26 -31 -26 -135 0 -66 -4 -109 -10 -109 -15 0
-13 -117 3 -123 9 -4 8 -8 -3 -17 -11 -9 -12 -13 -2 -17 6 -2 12 -9 12 -15 0
-37 -2 -37 1180 -37 937 0 1148 2 1163 13 15 12 17 32 17 165 0 128 -2 151
-15 151 -8 0 -15 5 -15 10 0 6 7 10 15 10 11 0 15 11 15 40 0 32 -6 46 -27 65
l-28 24 -1126 1 -1126 0 -27 -26z"/>
</g>
</svg>
